<svg xmlns="http://www.w3.org/2000/svg" width="1147" viewBox="0 0 1147 385" fill="none" class="svg-2"><path d="M8.72168 286.216C15.2017 289.786 24.7817 294.986 36.4917 301.036C70.1517 318.456 87.7217 329.816 107.092 336.326C137.832 346.646 166.132 347.056 188.032 347.306C203.872 347.486 229.572 345.276 264.402 335.986C277.082 332.606 297.512 326.996 321.512 313.226C329.752 308.496 347.052 297.836 365.522 279.876C385.572 260.376 391.892 240.356 395.522 234.296C401.762 223.886 403.242 210.866 406.242 203.656C406.292 210.246 407.472 216.826 407.202 223.426C404.442 290.756 350.312 342.606 291.082 366.716C226.002 393.206 150.812 389.256 89.0317 355.676C77.1817 349.236 65.8417 341.836 55.1317 333.636C44.2517 325.306 24.0617 307.096 14.5817 297.266C9.69168 292.196 14.8117 289.566 8.73169 286.216H8.72168Z" fill="#EF59C5"></path><path d="M732.772 267.962C732.782 285.622 732.742 303.292 732.802 320.952C732.832 328.982 731.392 336.852 723.112 339.822C669.622 359.032 615.962 364.722 563.092 338.132C534.562 323.782 516.652 299.732 507.512 269.512C497.162 235.292 497.062 200.572 507.192 166.352C523.612 110.872 571.422 75.6819 631.762 73.6419C659.742 72.6919 687.232 75.4519 713.132 86.8919C732.342 95.3819 740.172 118.242 731.592 137.572C727.672 146.412 722.672 142.632 717.512 139.612C697.642 127.972 676.272 120.602 653.302 119.112C598.092 115.522 559.482 151.122 557.172 207.222C556.702 218.602 557.402 229.902 559.532 241.102C569.382 292.812 617.432 321.582 666.772 305.652C674.652 303.112 678.402 299.732 677.892 290.762C677.062 276.092 677.252 261.322 677.842 246.622C678.142 239.222 675.572 237.272 668.582 237.532C655.982 238.002 643.332 237.212 630.742 237.802C622.602 238.182 619.042 234.592 618.332 227.182C617.892 222.592 617.592 217.952 617.702 213.352C618.092 198.052 619.992 196.292 635.502 196.282C661.992 196.262 688.492 196.192 714.982 196.302C727.652 196.352 732.432 200.872 732.652 213.712C732.972 231.792 732.732 249.882 732.742 267.962H732.772Z" fill="#F4F4F4"></path><path d="M935.732 113.445C935.732 115.965 935.832 118.495 935.712 121.015C935.052 135.855 932.122 137.615 918.972 130.765C900.072 120.925 880.772 113.475 858.772 118.085C847.022 120.545 839.022 126.715 835.882 138.615C832.712 150.635 837.042 160.055 845.962 167.785C854.312 175.015 864.272 179.585 874.292 183.925C887.782 189.765 901.202 195.695 913.822 203.335C942.802 220.875 954.722 246.595 951.092 279.995C947.692 311.315 930.892 333.135 902.542 345.325C866.762 360.705 830.432 359.035 794.742 344.395C775.142 336.345 766.852 313.995 775.052 294.225C778.862 285.045 784.502 288.325 790.202 291.845C809.902 304.015 830.862 311.625 854.472 310.485C863.482 310.055 871.992 308.155 879.572 303.325C896.442 292.575 898.752 269.655 884.492 255.535C875.952 247.085 865.002 242.555 854.422 237.445C841.952 231.425 829.082 226.075 817.172 219.085C786.042 200.825 772.812 170.665 779.502 135.435C785.302 104.835 809.852 81.7951 843.442 75.6651C866.572 71.4451 889.422 72.3651 911.802 80.0951C933.952 87.7451 935.812 90.3351 935.732 113.435V113.445Z" fill="#F4F4F4"></path><path d="M993.422 216.472C993.432 176.912 993.402 137.362 993.452 97.8024C993.472 82.8524 998.012 78.2525 1012.88 78.2325C1052.43 78.1725 1092 78.6125 1131.54 77.9425C1142.34 77.7625 1145.86 82.4925 1146.54 91.6925C1146.82 95.4625 1146.72 99.2624 1146.69 103.052C1146.55 121.272 1144.52 123.292 1126.66 123.282C1103.52 123.282 1080.37 123.502 1057.23 123.132C1050.65 123.022 1048.56 124.832 1048.72 131.562C1049.17 150.492 1049.27 169.442 1048.69 188.362C1048.45 196.202 1051.73 197.092 1058.28 196.992C1080.58 196.662 1102.9 197.382 1125.18 196.652C1136 196.302 1140.91 200.042 1140.8 210.782C1140.75 214.952 1141.82 219.182 1141.4 223.272C1139.61 240.652 1139.03 241.012 1121.41 241.012C1100.37 241.012 1079.32 241.442 1058.3 240.832C1050.2 240.592 1048.6 243.252 1048.71 250.772C1049.14 279.382 1048.51 308.002 1049.08 336.612C1049.28 346.462 1045.32 350.762 1036.19 350.992C1026.11 351.242 1016.02 351.182 1005.95 350.972C996.562 350.772 993.142 345.952 993.242 336.392C993.652 296.422 993.412 256.442 993.432 216.462L993.422 216.472Z" fill="#F4F4F4"></path><path d="M131.622 38.3826L132.132 21.5326C136.072 18.4926 140.482 15.5427 145.412 12.8527C173.672 -2.59735 202.842 -0.84736 218.942 1.62264L239.882 20.0026L243.452 43.4926C238.522 43.9726 231.872 44.7427 224.052 46.0427C215.122 47.5227 199.322 50.2126 182.182 56.2526C170.042 60.5326 152.722 68.0726 133.672 81.7826L131.632 65.4426C134.552 63.5826 138.552 61.1027 143.372 58.2927C148.412 55.3527 160.172 48.6726 176.052 41.4426C186.162 36.8426 198.302 31.8527 212.312 27.1427L211.802 22.0326C209.952 21.8726 207.312 21.6727 204.142 21.5227C195.032 21.1027 183.292 20.5527 170.442 23.0527C163.982 24.3127 154.832 26.8126 144.402 32.2426L131.632 38.3726L131.622 38.3826Z" fill="white"></path><path d="M247.872 17.7858C250.932 17.1158 255.392 16.2158 260.812 15.4058C267.132 14.4658 282.942 12.0958 296.212 13.3658C323.832 15.9958 343.222 34.5958 353.742 44.6858C364.192 54.7058 368.432 62.4358 370.762 67.8358C373.872 75.0458 375.042 81.5058 375.532 85.8758C375.532 85.8758 336.472 76.5558 336.302 76.3558C334.592 74.3358 336.172 70.9958 326.852 63.0758C324.572 61.1458 318.012 55.3158 307.792 50.4758C297.322 45.5258 288.132 43.9258 283.282 43.3258C276.752 42.5158 271.142 42.6458 266.942 42.9858L247.882 17.7958L247.872 17.7858Z" fill="white"></path><path d="M130.772 144.08L131.102 123.31C133.352 121.79 136.642 119.62 140.702 117.18C145.902 114.06 154.702 109.081 175.792 100.161C190.072 94.1205 201.352 89.9305 206.912 87.9005C221.552 82.5705 228.872 79.9005 238.692 77.3505C246.132 75.4205 258.962 72.1505 276.102 70.8805C294.872 69.4905 309.292 71.2005 314.502 71.9005C328.932 73.8405 339.632 77.1005 345.952 79.0505C359.142 83.1205 365.872 85.0905 374.092 89.9405C379.782 93.3005 391.772 100.37 400.582 114.45C412.192 133.01 411.272 152.53 410.512 160.07L382.402 168.911C380.502 165.341 374.192 158.75 369.792 153.6C361.282 143.67 352.542 138.87 340.662 132.49C325.492 124.35 312.532 120.18 305.572 118.19C301.672 117.07 290.462 114.021 275.772 112.401C241.222 108.601 212.502 115.52 193.672 120.23C179.072 123.88 159.142 129.991 136.402 140.661L130.772 144.06V144.08Z" fill="white"></path><path d="M130.432 221.009L130.092 199.22C131.962 198.24 134.662 196.829 137.922 195.129C149.732 188.989 170.502 178.209 192.392 167.559C214.352 156.879 225.332 151.529 231.542 149.519C235.362 148.279 252.662 142.809 276.482 141.009C292.852 139.769 307.672 140.619 320.392 142.369L315.622 161.09L303.712 179.809L289.072 188.319C286.632 187.749 282.982 186.97 278.522 186.28C278.522 186.28 265.662 184.279 251.632 184.579C218.422 185.289 175.832 200.539 171.972 201.939C164.412 204.689 153.932 208.779 141.672 214.539L130.442 221.009H130.432Z" fill="white"></path><path d="M0.131836 282.727C0.201836 281.837 9.53185 282.437 19.2818 281.957C56.0518 280.177 89.4919 263.497 119.932 244.027C147.312 226.507 171.742 204.117 191.132 177.997C212.412 149.327 227.532 115.877 232.652 80.3966C234.402 68.2666 234.942 55.9566 234.192 43.7266C233.702 35.7666 233.012 28.3166 229.792 21.0066C228.132 17.2266 222.462 1.76656 217.522 1.47656C220.592 1.65656 224.382 3.85656 229.412 5.44656C271.482 18.7266 283.662 75.9766 280.042 114.097C276.272 153.807 254.292 191.847 224.462 217.867C199.822 239.357 171.262 256.297 140.672 267.777C109.242 279.567 73.1018 287.327 39.4918 287.707C36.3018 287.747 -0.188154 286.847 0.141846 282.717L0.131836 282.727Z" fill="#46B8E9"></path><path d="M0.0423655 283.141C0.422366 282.121 13.4124 286.551 24.2124 289.101C64.9324 298.711 108.252 289.321 148.112 276.221C183.972 264.431 218.252 246.021 248.322 221.621C281.332 194.841 309.242 160.521 326.932 120.641C332.982 107.001 337.772 92.7809 341.122 78.2209C343.302 68.7509 345.092 59.8209 344.082 50.2409C343.552 45.2909 337.402 28.6209 332.112 26.7109C335.392 27.9009 344.352 31.331 349.302 34.801C390.672 63.731 384.102 131.701 367.142 175.161C349.482 220.431 312.512 257.941 271.092 278.881C236.882 296.181 199.942 306.921 162.632 310.611C124.312 314.411 82.2324 311.991 45.4424 301.731C41.9524 300.761 -1.71764 287.871 0.05236 283.141H0.0423655Z" fill="#F7A84C"></path><path d="M0.0419922 283.992C5.58199 285.692 13.962 288.282 24.142 291.482C70.702 306.122 75.842 308.763 90.682 311.573C108.562 314.953 122.132 315.112 139.222 315.312C155.732 315.502 172.892 315.803 194.892 311.913C215.572 308.253 230.372 302.733 244.792 297.273C262.442 290.593 282.052 283.163 304.542 267.653C327.352 251.923 341.492 235.883 344.942 231.913C355.532 219.673 373.122 196.363 383.982 163.143C391.452 140.303 392.572 122.472 392.812 117.862C393.412 106.292 394.022 111.282 393.132 104.062L398.922 109.343C399.912 111.753 402.782 114.952 404.202 119.042C407.152 127.542 410.262 134.612 411.862 150.362C413.512 166.562 410.902 178.933 409.792 185.953C408.912 191.503 406.322 205.853 398.932 223.062C396.262 229.273 388.752 245.672 374.152 263.232C353.492 288.082 330.912 300.493 314.062 309.533C305.042 314.373 277.382 328.512 238.022 335.742C199.872 342.762 170.182 339.713 148.062 337.443C134.312 336.033 108.922 332.652 78.132 323.482C59.552 317.952 43.982 311.783 31.962 306.463L13.632 296.593L0.0519867 283.992H0.0419922Z" fill="#92CD59"></path></svg>