<svg width="150" height="64" viewBox="0 0 150 64" fill="none" xmlns="http://www.w3.org/2000/svg">
<g id="ISB_IDENTITY_COLOUR_RGB_POSITIVE" clip-path="url(#clip0_2956_449)">
<path id="Vector" d="M83.2513 16.8992H88.7751V54.5163H80.8887V19.335C80.8887 17.989 81.9444 16.8992 83.2483 16.8992H83.2513ZM108.262 31.5509C104.602 30.1555 102.574 29.2262 102.574 26.7256C102.574 24.6912 104.04 23.3545 107.192 23.3545C109.839 23.3545 112.611 24.1479 115.033 25.3673L116.795 21.4867C117.435 20.0327 116.741 18.3286 115.291 17.776C112.722 16.7973 109.719 16.2046 107.078 16.2046C100.206 16.2046 94.5172 19.9833 94.5172 27.4851C94.5172 34.9869 99.1349 36.6138 105.332 38.6483C108.541 39.6948 110.625 41.0902 110.625 43.7637C110.625 46.4372 108.879 47.9499 105.388 47.9499C101.898 47.9499 97.9535 46.4958 95.7584 45.1591L93.8443 49.3731C93.2043 50.7808 93.8234 52.4572 95.2081 53.0622C97.8848 54.2292 101.722 55.2202 105.502 55.2202C113.218 55.2202 118.682 51.1513 118.682 42.8931C118.682 35.6846 113.67 33.5328 108.262 31.5571V31.5509ZM149.017 43.7606C149.017 50.7963 144.172 54.5163 135.893 54.5163H123.503V19.335C123.503 17.989 124.559 16.8992 125.863 16.8992H136.118C142.706 16.8992 147.494 18.9336 147.494 26.0866C147.494 30.6803 144.848 33.4124 141.411 34.6319V34.8078C146.029 35.4469 149.014 38.8181 149.014 43.7606H149.017ZM131.273 31.9584H134.033C137.637 31.9584 139.327 30.4457 139.327 27.1918C139.327 23.9379 137.637 22.8883 134.428 22.8883H131.862C131.539 22.8883 131.276 23.16 131.276 23.4934V31.9584H131.273ZM140.454 43.2358C140.454 39.1669 137.921 37.9444 133.809 37.9444H131.862C131.539 37.9444 131.276 38.2161 131.276 38.5495V47.8851H135.161C138.708 47.8851 140.454 46.2581 140.454 43.2327V43.2358Z" fill="#192890"/>
<path id="Vector_2" d="M62.9092 41.8003L62.975 41.9269C58.447 54.4947 47.0525 64.0001 32.2845 64.0001C14.457 64.0001 0 49.0798 0 30.6742C0 27.7166 0.331967 24.8981 1.02282 22.1227C3.54696 22.1227 10.7306 22.1227 17.9202 28.7694C25.699 35.9594 30.9596 44.3781 41.2625 45.5635C47.9408 46.3322 51.7449 44.3102 56.0635 43.0629C59.8557 41.967 62.3589 41.8188 62.9092 41.8003ZM63.7525 33.8632C63.3338 33.465 62.8643 33.0883 62.3918 32.7858C61.046 31.9275 59.2755 30.9458 55.4773 30.7668C49.5976 30.492 44.1456 34.7523 40.2846 33.8941C37.8561 33.3538 36.3399 31.2051 35.2692 28.4298C33.9772 25.0833 33.1039 18.9861 29.0336 15.4513C24.9633 11.9135 18.7157 10.4687 12.0435 10.9348C9.75563 11.0954 7.00719 11.6449 4.98548 12.5741L5.01539 12.7624C6.54363 12.9106 12.6566 13.7565 18.8563 18.2977C25.2205 22.9562 28.7106 28.8095 32.1888 33.3384C36.0498 38.3705 37.9578 39.4633 41.4211 39.9696C44.8723 40.4728 48.9277 40.019 55.1005 37.3702C60.8396 34.9067 63.7794 34.9437 64.575 35.0178L64.6557 34.8511C64.4075 34.5331 64.0994 34.1904 63.7525 33.8632ZM63.3936 9.03622C61.8863 8.48979 60.6482 8.52375 58.6265 8.79542C56.4313 9.0887 56.0904 8.86025 55.253 7.2611C54.2661 5.36867 53.5573 3.27866 51.7748 1.82769C49.8727 0.277933 47.3845 0.0155235 46.1015 8.77105e-05C45.8921 -0.00299945 45.2282 0.00317488 44.5074 0.098877L44.4925 0.228538C45.291 0.494034 47.528 1.50045 49.1041 4.83459C51.0511 8.96212 52.1247 10.941 54.0029 11.6974C56.225 12.5895 59.422 11.0923 61.6202 10.8731C64.3746 10.5983 65.6815 11.0676 66.2139 11.3732L66.3215 11.2713C65.7653 10.4409 64.7903 9.53634 63.3966 9.03313L63.3936 9.03622ZM22.8249 3.64603C25.8306 4.39312 29.4882 5.69282 32.0991 7.89397C37.3178 12.2963 37.9907 17.1709 39.4412 21.0175C40.6016 24.1047 41.75 25.4877 43.0899 26.241C45.0278 27.3277 46.9359 27.3493 50.1569 26.4293C54.6339 25.1512 57.4003 24.1818 62.7865 25.8026L62.8822 25.6205C62.2691 24.7468 59.9843 21.956 55.5371 21.459C51.718 21.0299 49.9655 21.8912 46.562 21.922C44.1695 21.9437 43.7478 20.079 42.5455 15.6582C41.3582 11.2898 41.1369 8.24899 38.0954 4.88398C35.0539 1.51897 29.3566 1.41092 27.6758 1.35844C24.8347 1.27509 22.0055 1.51589 20.244 1.87091C19.4514 2.03144 18.632 2.22593 17.8574 2.53465L17.8903 2.74458C18.6948 2.83719 20.5789 3.08725 22.8249 3.64603Z" fill="#192890"/>
</g>
<defs>
<clipPath id="clip0_2956_449">
<rect width="149.017" height="64" fill="white"/>
</clipPath>
</defs>
</svg>
